<?xml version="1.0" encoding="UTF-8"?>
<svg viewBox="0 0 1859.9 1868.9" xmlns="http://www.w3.org/2000/svg">
 <path d="m1235.9 1435.1c-7.4466 0-15.155-0.18054-22.868-0.54541l-12.966-0.6174-1.7963-147.04 15.813 2.1954c0.010986 0 4.7455 0.61414 12.468 0.61414 40.219 0 135.34-15.57 151.09-159.54 3.0552-135.9-1.9656-352.34-28.327-393.33l-1.0747-1.6714-0.5729-1.9136c-0.13074-0.4585-15.516-49.204-50.501-49.204-22.853 0-51.7 19.888-83.422 57.504l-3.0374 3.6038-43.372 9.3411-15.46-214.52 10.007-3.5349c2.1246-0.74719 52.619-18.328 114.54-18.328 76.99 0 208.44 29.655 223.7 228.26 1.1351 12.901 28.21 320.5 19.144 425.81-0.03894 10.45-2.3301 111.51-74.606 185.95-49.582 51.059-119.82 76.956-208.76 76.956z" fill="#eff3fa"/>
 <path d="m1276.4 532.17c87.067 0 196.23 36.566 209.96 215.3 0 0 28.337 319.45 19.108 424.09 0 0 2.1146 249.47-269.59 249.47-7.2172 0-14.625-0.17688-22.228-0.53418l-1.4353-117.48s5.3888 0.74756 14.313 0.74756c39.427 0 147.86-14.584 164.85-172.67 0 0 7.7832-342.36-30.568-401.98 0 0-17.825-59.126-63.67-59.133-23.482 0-54.302 15.501-93.856 62.39l-23.394 5.037-13.532-187.68c0.01062-0.003601 49.734-17.556 110.04-17.563m0.0178-28.131v28.131l-0.0109-28.131c-64.206 0.00708-116.83 18.321-119.05 19.112l-20.024 7.0665 1.5594 21.581 13.532 187.68 2.3088 32.1 30.845-6.6442 23.398-5.0334 9.1014-1.9604 6.0717-7.2072c38.624-45.792 62.304-52.62 72.987-52.62 24.367 0 37.266 39.025 37.39 39.419l1.1599 3.82 2.1075 3.2067c4.6182 7.1854 20.095 43.484 25.155 208.79 2.6057 85.276 1.1382 165.16 0.91186 175.89-14.162 127.36-92.056 146.41-137.33 146.41-6.6544 0-10.714-0.5022-10.767-0.51257l-31.644-4.3876 0.5477 32.634 1.4323 117.48 0.3254 26.514 25.937 1.2314c7.9312 0.37915 15.838 0.57056 23.503 0.57056 92.746 0 166.27-27.294 218.55-81.137 74.624-76.862 78.436-180.72 78.587-195.17 8.9852-106.68-17.842-412.38-19.208-427.75-16.156-209.75-155.65-241.06-237.38-241.06z"/>
 <path d="m703.62 1661c-104.61 0-358.49-12.832-456.39-131.71-2.0865-2.5456-3.2355-5.7626-3.2252-9.0881l1.9308-917.47c0.014252-7.0157 5.0886-12.951 11.899-13.905l909.3-127.34c0.61914-0.086945 1.2451-0.13351 1.8636-0.13351 3.1965 0 6.3226 1.137 8.8153 3.2533 2.974 2.5276 4.7734 6.2214 4.9438 10.161l45.954 1018.8c0.1377 3.2858-0.84863 6.535-2.79 9.1571-33.383 44.885-147.29 150.1-483.2 157.52 0.10614 0.014404-14.664 0.73303-39.098 0.73303z" fill="#eff3fa"/>
 <path d="m1169 475.47l45.947 1018.8c-30.424 40.924-140.05 144.62-472.53 151.97-0.72479 0.036255-15.159 0.71143-38.801 0.71143-97.385 0-350.98-11.508-445.84-126.7l1.9307-917.46 909.29-127.34m0-28.128c-1.2485 0-2.4967 0.086395-3.7412 0.26004l-909.3 127.34c-13.624 1.9102-23.78 13.772-23.808 27.814l-1.9273 917.46c-0.014236 6.6438 2.2809 13.082 6.4638 18.162 45.077 54.739 125.09 93.789 237.83 116.07 90.988 17.978 182.6 20.66 229.1 20.66 22.457 0 36.993-0.60632 39.713-0.72534 341.67-7.6116 458.96-116.57 493.55-163.07 3.9038-5.2463 5.8734-11.728 5.5765-18.303l-45.94-1018.8c-0.35718-7.8963-3.9425-15.269-9.8866-20.321-4.9752-4.2429-11.234-6.5172-17.63-6.5172v3.1e-5z"/>
 <path d="m729.9 1863.2c-103.01 0-358.28-10.352-503.65-106.26-1.0536-0.68213-2.0012-1.5238-2.8286-2.4767-4.0808-4.6976-38.422-50.522 9.8583-211.67 1.729-5.7736 6.8739-9.7852 12.793-9.9476 0 0 4.158-0.11182 4.2818-0.11182 3.7056 0 7.2632 1.5236 9.8582 4.2355 17.136 17.938 39.013 34.158 65.02 48.214 119.16 64.416 300.62 71.378 373.1 71.378 25.813 0 42.396-0.83435 44.207-0.92834 307.58-6.7986 427.06-93.2 470.95-144.09 2.6274-3.0582 6.4108-4.7772 10.34-4.7772 0.59387 0 1.2023 0.043457 1.8029 0.1156 4.5475 0.61414 8.5006 3.5062 10.538 7.7166 7.1816 14.815 68.496 146.78 10.831 215.91-0.30432 0.3678-0.62927 0.71814-0.97595 1.0576-5.0105 4.8892-126.89 119.86-480.24 131.13-0.43854 0.014282-13.479 0.52356-35.869 0.52356-0.006897-0.014526-0.014221-0.014526-0.017761-0.014526z" fill="#eff3fa"/>
 <path d="m1223.8 1520.8c6.022 12.425 64.826 138.04 12.691 200.56 0 0-119.02 116.02-471.16 127.25 0 0-13.062 0.52026-35.452 0.52026-94.036 0-352.36-9.1317-496.18-104.02 0 0-34.688-39.956 12.722-198.22l3.9073-0.1078c19.055 19.935 42.368 36.721 68.428 50.81 119.78 64.748 296.99 73.006 379.56 73.006 25.424 0 41.88-0.78015 44.911-0.93872 314.35-6.9509 436.5-97.747 480.58-148.86m-0.0143-28.128c-7.8569 0-15.396 3.4341-20.671 9.5428-19.374 22.478-57.347 55.18-128.25 83.373-85.907 34.154-197.69 52.98-332.25 55.949-0.26849 0.007202-0.53742 0.014648-0.80981 0.028809-1.7749 0.0979-18.03 0.91016-43.503 0.91016-71.456 0-250.23-6.7992-366.66-69.738-24.734-13.378-45.466-28.716-61.608-45.607-5.187-5.4265-12.302-8.4816-19.71-8.4816-0.24736 0-0.50198 0.003418-0.75664 0.01123l-3.9037 0.1044c-11.828 0.33215-22.128 8.3409-25.583 19.892-48.189 160.85-17.538 212.97-6.9942 225.11 1.6548 1.9136 3.5644 3.5891 5.6648 4.9791 148.45 97.935 406.9 108.51 511.13 108.51 22.662 0 35.965-0.52002 36.516-0.53772 358.35-11.428 483.94-129.97 489.11-135.01 0.67871-0.66772 1.3366-1.3682 1.9482-2.1045 62.078-74.414 3.4265-205.71-8.9639-231.28-4.0735-8.4059-11.976-14.18-21.085-15.411-1.1987-0.17334-2.4084-0.2456-3.614-0.2456z"/>
 <path d="m1138.3 1390.8c0.72131 51.551-37.202 107.76-84.291 124.92-188.76 68.792-386.67 76.111-580.83 28.86-23.122-5.6218-46.354-11.327-68.977-18.844-47.552-15.786-87.07-70.893-87.806-122.46l-6.549-459.4c-0.72461-51.558-1.9376-135.94-2.6662-187.51l-6.5484-459.39c-0.732-51.565 39.532-94.378 89.478-95.132l229.32-3.4847c49.946-0.76154 131.69-2.0001 181.63-2.7583l229.31-3.4812c49.96-0.75809 68.719 40.812 69.451 92.374l24.717 459.39c0.72131 51.565 6.4705 135.94 7.2061 187.51l6.5522 459.4z" fill="#ffcd49"/>
 <path d="m1066.5 1220.2c3.1614 51.384 2.9912 96.963-34.289 106.46-39.494 10.063-43.634-39.682-44.72-91.37-2.882-136.58-1.7222-273.58-1.9411-410.28-0.07428-45.614-0.19134-120.24-0.2655-165.85l-0.6292-406.34c-0.070862-45.6 3.8295-83.466 8.6631-84.141l22.213-3.0836c4.8441-0.66064 12.754-1.7582 17.605-2.4369l22.21-3.073c4.8373-0.67532 6.6516 36.1 6.726 81.7l2.3899 406.34c0.074219 45.614 0.63306 120.24 0.69666 165.85 0.12732 83.113-0.063599 166.23 0.25134 249.34 0.19055 51.934-2.1857 104.46 1.0254 156.08 0.02063 0.25647 0.03833 0.5271 0.063477 0.80176z" fill="#f89939"/>
 <path d="m1056.8 570.2s142.92 130.97 197.89-112.26c0 0 87.948-37.426 29.31-119.75 0 0 29.313-97.284-54.967-86.059 0 0 10.993-127.22-109.94-104.78 0 0-40.307-74.847-117.26-14.97 0 0 16.032-73.685-18.32-113.62 0 0-135.6-140.84-282.17 8.8427 0 0-76.957-59.877-139.25 22.455 0 0-62.294-44.907-120.93 29.937 0 0-62.294-104.79-131.92 0 0 0-164.9-22.455-142.92 145.94 0 0-128.25 71.088-62.29 164.65 0 0-80.062 59.498-21.987 123.49 0 0-48.892 71.977 43.977 130.97 0 0 14.657 78.581 73.29 56.129 0 0-18.316 119.74 58.631 138.46 0 0 14.657 254.45 168.57 232 0 0 117.26 3.7369 139.25-160.91 0 0 135.59-82.325 69.628-194.59 0 0 128.17 42.624 172.14-80.863 0 0 88.853 57.978 125.49-9.377-0.010315-0.003601 112.78 67.785 123.78-55.696z" fill="#fff"/>
 <path d="m407.69 1087.1c-132.34 0-158.37-190.11-162.76-236.74-58.814-21.492-62.866-95.158-61.12-131.27-1.5241 0.11542-3.0374 0.17627-4.5262 0.17627-44.2 0-60.833-47.99-65.416-65.445-31.743-21.368-50.784-46.828-56.636-75.725-5.4702-27.03 2.2946-49.984 8.1115-62.332-13.833-18.155-19.844-37.689-17.888-58.184 3.0409-31.854 25.063-57.155 38.358-69.731-13.525-23.582-17.602-47.875-12.121-72.385 11.085-49.478 58.56-84.495 77.881-96.948-4.448-46.561 4.7878-83.535 27.499-110.03 32.496-37.891 83.789-43.553 111.48-43.553 4.6608 0 8.7165 0.15517 11.952 0.35744 22.008-30.482 46.145-45.932 71.834-45.932 30.753 0 54.734 22.56 67.757 38.357 27.743-28.612 55.575-35.085 75.055-35.085 17.567 0 32.188 5.1054 41.566 9.543 22.882-25.998 50.536-39.66 80.575-39.66 26.113 0 48.104 10.179 60.247 17.263 45.225-43.232 94.015-65.134 145.18-65.134 85.716 0 146.05 61.636 148.58 64.261 0.18005 0.18768 0.34998 0.38256 0.51971 0.58095 23.808 27.666 26.636 67.976 25.169 95.523 13.483-6.5859 26.764-9.9043 39.706-9.9043 34.989 0 57.245 23.777 66.901 36.963 38.928-5.246 69.065 3.9289 89.655 26.896 21.902 24.424 26.796 58.357 27.627 78.202 26.372 0.31778 40.445 12.125 47.626 22.058 17.74 24.531 11.984 60.881 8.4088 76.281 17.362 26.56 22.864 52.009 16.347 75.732-8.6106 31.334-35.965 49.468-48.716 56.414-29.96 125.27-85.238 151.82-126.7 151.82-29.501 0-56.085-13.294-73.072-24.329-12.807 54.523-49.451 63.387-71.876 63.387h-0.003601c-22.429 0-44.313-8.3696-57.22-14.421-14.239 18.653-34.48 28.428-59.238 28.428-24.89 0-49.31-9.9401-64.115-17.396-24.345 53.147-69.73 82.173-129.32 82.173-9.2534 0-17.821-0.71149-25.282-1.6969 8.515 23.961 9.7982 48.247 3.8082 72.515-14.498 58.693-67.425 98.938-85.094 110.98-24.392 160.83-136.82 166.52-151.06 166.6-6.6688 0.91736-13.277 1.39-19.671 1.39zm-208.43-399.99c3.1187 0 6.2058 1.0797 8.695 3.1594 3.8049 3.1595 5.6717 8.1316 4.9116 13.075-0.1559 1.0543-15.392 107.13 48.217 122.61 5.9052 1.4333 10.201 6.6549 10.558 12.843 0.12384 2.2064 14.3 220.18 136.04 220.18 5.4314 0 11.096-0.41834 16.835-1.2601 0.77774-0.11194 1.5948-0.16272 2.3761-0.13354 10.976 0 105.87-4.1741 125.17-148.75 0.56921-4.2421 3.0056-7.9974 6.6083-10.189 0.62592-0.37897 63.949-39.614 78.164-97.501 6.3326-25.785 1.8561-51.948-13.306-77.757-2.9598-5.0303-2.5458-11.41 1.0398-16 3.5784-4.5892 9.579-6.4199 15.035-4.6069 0.16626 0.057495 19.866 6.4162 45.395 6.4162 54.083 0 90.936-26.485 109.53-78.718 1.4287-4.0079 4.5651-7.1492 8.5292-8.5178 3.9531-1.372 8.3129-0.8305 11.831 1.4696 0.30042 0.19867 32.722 20.989 63.538 20.989 19.324 0 33.221-8.2864 42.496-25.336 1.8072-3.3146 4.8408-5.7521 8.4197-6.7451 3.5748-1.0002 7.4042-0.47998 10.608 1.4518 0.26141 0.15161 28.182 16.62 54.942 16.62h0.11652c10.682 0 42.574-0.22046 48.03-61.463 0.47412-5.3 3.8367-9.8646 8.6812-11.814 4.8478-1.9536 10.364-0.93524 14.236 2.6178 0.33252 0.30304 35.222 31.62 73.892 31.62 58.28 0 87.297-74.27 101.38-136.57 1.0011-4.42 4.0208-8.074 8.1262-9.8216 0.27576-0.12299 32.022-14.161 39.436-41.466 4.5016-16.631-0.86597-35.822-15.968-57.021-2.5532-3.5817-3.3064-8.182-2.0227-12.407 3.207-10.785 9.0309-42.314-2.4716-58.162-6.5769-9.056-19.137-12.277-37.549-9.8248-4.1583 0.56677-8.3093-0.84174-11.319-3.7985-3.0124-2.9505-4.5542-7.1386-4.1865-11.381 0.038818-0.43329 3.5182-46.466-20.406-73.024-11.573-12.862-27.581-19.108-48.914-19.108-7.5247 0-15.746 0.81937-24.427 2.4299-5.8345 1.0764-11.679-1.7581-14.53-7.0589-0.6648-1.2023-17.383-30.901-48.291-30.901-14.876 0-31.216 6.8459-48.556 20.34-4.6005 3.578-10.905 3.8381-15.774 0.66367-4.8729-3.1881-7.2737-9.1313-6.0186-14.901 0.12738-0.64966 13.939-66.824-14.936-100.94-3.978-3.9789-57.255-55.627-128.7-55.627-46.608 0-91.576 21.791-133.68 64.773-4.8798 4.9793-12.599 5.51-18.083 1.2461-0.2016-0.15924-24.006-18.148-53.662-18.148-24.932 0-47.255 12.793-66.339 38.007-4.512 5.9609-12.822 7.2391-18.843 2.8957-0.084656-0.061592-15.608-10.785-36.958-10.785-23.546 0-45.512 12.796-65.271 38.018-2.8109 3.5852-7.164 5.5532-11.647 5.2495-4.4908-0.29567-8.5465-2.805-10.887-6.7376-0.21585-0.37201-24.254-39.798-54.996-39.798-17.857 0-35.94 13.591-53.747 40.397-2.9382 4.4087-8.0515 6.7451-13.221 6.0447-0.042328-0.003403-6.6934-0.8701-16.828-0.8701-23.019 0-65.426 4.4156-90.748 33.952-18.741 21.859-25.424 54.512-19.869 97.06 0.75664 5.7812-2.065 11.435-7.0823 14.219-0.59448 0.33586-61.463 34.757-72.318 83.517-4.5331 20.354 0.25472 40.155 14.632 60.552 4.4308 6.2788 3.0552 15.035-3.0655 19.592-0.32547 0.23486-34.211 26.009-37.241 58.458-1.4252 15.313 4.2145 29.727 17.248 44.095 4.3989 4.8456 4.9009 12.15 1.2164 17.573-0.10616 0.16254-14.841 22.827-9.0343 50.673 4.657 22.354 21.142 42.654 48.97 60.336 3.2636 2.0763 5.5302 5.4523 6.2549 9.3084 0.085083 0.45483 9.671 48.731 39.77 48.731 4.6108 0 9.7098-1.0507 15.145-3.1307 1.5561-0.61737 3.2002-0.91003 4.8231-0.91003z"/>
 <g fill="#f89939">
  <path d="m597.82 1399.3c20.558 0 20.558-32.562 0-32.562-20.569 0.00354-20.569 32.562 0 32.562z"/>
  <path d="m689.64 1164.9c20.562 0 20.562-32.561 0-32.561s-20.562 32.561 0 32.561z"/>
  <path d="m809.01 864.87c20.558 0 20.558-32.562 0-32.562-20.566 0-20.566 32.562 0 32.562z"/>
  <path d="m469.27 1193c20.558 0 20.558-32.566 0-32.566-20.566 0.004272-20.566 32.566 0 32.566z"/>
  <path d="m900.84 1394.6c20.562 0 20.562-32.562 0-32.562s-20.562 32.562 0 32.562z"/>
  <path d="m835.6 1023c1.9628-6.3691 2.3905-13.053-1.3965-18.986-3.6247-5.6686-9.2256-9.3805-16.011-9.3805-6.7892 0-12.394 3.7083-16.015 9.3805-3.7833 5.9329-3.3487 12.606-1.3825 18.986 2.4185 7.8606 9.1478 13.526 17.397 13.526s14.975-5.6658 17.408-13.526z"/>
  <path d="m623.07 1024.4c1.6229 1.4624 3.239 2.9353 4.862 4.4084 4.5188 4.1124 9.6075 6.6873 15.802 6.6873 5.898 0 11.623-2.4303 15.796-6.6873 4.1757-4.2605 6.5484-10.11 6.5484-16.129 0-6.3259-2.5173-11.522-6.5484-16.136-1.4391-1.6575-2.882-3.3076-4.3178-4.9648-8.2421-9.4526-23.769-8.5499-32.142 0-8.373 8.5502-9.2535 24.405 0 32.822z"/>
  <path d="m712.6 1338.4c20.562 0 20.562-32.562 0-32.562-20.569 0.00354-20.566 32.562 0 32.562z"/>
  <path d="m832.89 1235.9c-1.5985-4.4232-3.9888-10.417-8.5818-12.519-4.2647-1.9493-7.5175-2.567-12.044-1.5306-3.3379 0.75464-6.2906 3.2461-8.6915 5.5606-5.4029 5.1923-5.6466 15.335 0 20.487 5.806 5.3005 11.881 7.0226 19.522 5.6505 3.4194-0.61316 7.2667-3.235 9.7206-5.6505-3.3487 1.4155-6.69 2.8345-10.039 4.2466h4.5932c6.3118 0 12.008-4.4272 13.681-10.641 1.9662-7.29-2.3477-16.143-9.9077-17.819 3.0657 0.68262 2.0049 1.0509 0.73529 0.48743-1.4885-0.66431-3.0763-1.4299-4.671-1.9423 3.6495 3.7261 7.2911 7.4451 10.941 11.172-1.4996-5.5568-4.5262-8.5576-8.8931-11.901 1.2443 0.97852 2.475 1.9534 3.709 2.9286-0.21588-0.18787-0.43121-0.37219-0.66119-0.56348-2.4927-2.5238-5.428-4.2749-8.8155-5.2395-5.6713-1.5995-10.208-0.20581-15.392 2.0509-1.9731 0.86328-3.713 2.8096-5.4171 4.2935-3.377 2.9645-4.9754 7.0662-6.4181 11.2-2.6697 7.644 0.43506 17.068 5.845 22.589 7.4962 7.6616 18.402 8.4596 27.549 3.6249 0.39288-0.19153 0.78186-0.41174 1.1463-0.66077-3.9038 1.0758-7.8008 2.163-11.712 3.2354 10.884 0.36108 19.985-7.1854 24.462-16.84-4.9963 3.9241-9.9822 7.8422-14.975 11.763 7.0579-2.4984 13.005-6.2428 16.853-12.934 1.5733-2.7511 2.1957-5.1668 3.1364-7.8782-0.89447 2.1809-1.8034 4.3655-2.6978 6.5463 0.010498-0.029053 0.017822-0.057861 0.035339-0.086792-3.2074 3.2784-6.418 6.5497-9.6321 9.8357 0.010498 0 0.010498-0.003662 0.021118-0.006958-13.461-7.8968-26.93-15.776-40.392-23.669 0.028503 0.41174-0.07428 0.85938-0.12341 1.2711-0.79944 6.8278 3.3624 14.844 7.9098 19.487 5.0424 5.1527 11.955 8.0702 19.08 8.0702s14.056-2.9208 19.088-8.0702c4.5365-4.6362 8.7091-12.67 7.8994-19.487-0.33246-2.8491-0.29022-5.8423-1.1318-8.5615-2.8323-9.2107-9.4728-16.534-18.748-19.14-4.7557-1.3037-9.5117-1.3037-14.264 0-4.5438 1.2998-8.5007 3.6539-11.846 7.0518-5.8483 4.7446-7.365 12.822-7.9309 19.859-0.66467 8.3262 3.1929 15.198 8.3484 21.137-2.1427-8.3085-4.2961-16.61-6.4462-24.907-0.19074 1.2927-0.44885 2.5564-0.81323 3.813-1.471 4.9719-1.9837 10.334-0.20837 15.349v-12.602c-0.07428 0.21314-0.14514 0.41174-0.2193 0.62109 0.77441-1.8666 1.5453-3.7333 2.3231-5.6039-0.098755 0.21692-0.18744 0.42627-0.27582 0.64246 13.854 1.8528 27.698 3.6942 41.552 5.5464-1.3437-3.8562-2.9879-8.1857-6.1705-10.966-1.7644-1.5491-3.6951-3.6653-5.6716-4.5281 3.0657 7.6764 6.1206 15.353 9.183 23.033 0.077698-0.36121 0.15204-0.72217 0.22961-1.0796-2.8073 3.7229-5.6116 7.4488-8.4191 11.179 4.3564-3.3436 7.3901-6.3473 8.8861-11.898-3.6456 3.719-7.2913 7.4456-10.941 11.164 1.6019-0.51245 3.1826-1.2782 4.6748-1.9459 1.2694-0.54907 2.3339-0.18433-0.73157 0.49829 6.1136-1.3577 10.413-7.7954 10.413-13.967 0-7.9002-6.4495-14.49-14.186-14.49-2.7474 0-5.6966-0.23096-8.3591 0.52026-2.5001 0.69678-4.4484 1.946-6.3012 3.7656-1.464 1.437 3.4157-2.4802 1.5488-1.2637-1.9199 1.2493 3.6845-1.2747 1.2798-0.57739 2.8466-0.81262 5.8842-0.20984 8.0906 1.798v20.48c0.24036-0.22754 0.48438-0.45923 0.72473-0.68994-2.0158 2.0112-4.5189 3.0183-7.5248 3.0295-2.3939-0.66089-4.7803-1.3147-7.1674-1.9789-1.4282-1.484-2.8713-2.9717-4.3104-4.4595-0.64356-2.4371-1.2905-4.8706-1.9341-7.3082 0.1239 1.4049 0.27582 0.578 0.4632-2.4514-0.077698 0.63159-0.27576 1.2567-0.44556 1.8668-2.6839 9.7743 4.8301 19.732 14.724 19.732 9.3034 0 18.242-10.081 14.742-19.732z"/>
  <path d="m431.08 1301.1c-5.6718 2.6503-10.711 9.6768-11.969 15.757-1.2696 6.1455-0.69672 9.9619 0.33234 16.172 1.0964 3.9972 3.0764 7.4672 5.9407 10.414 4.3104 4.4012 10.24 6.9071 16.336 6.9071 4.1688-0.014526 8.0583-1.087 11.665-3.2173 4.7347-2.8416 9.6497-8.355 10.612-14.104 0.17694-1.029 0.31104-2.0653 0.66116-3.0549-0.79205 1.9174-1.584 3.842-2.3796 5.7665 0.063416-0.1731 0.14856-0.32458 0.24039-0.47998-1.2339 1.6321-2.4749 3.2605-3.709 4.9033 0.084564-0.13025 0.19074-0.2345 0.31473-0.3252-1.6092 1.2716-3.2071 2.5315-4.8198 3.8024 0.070709-0.036133 0.12735-0.072266 0.19074-0.11206-1.8987 0.81995-3.7976 1.6433-5.6894 2.4554 0.14493-0.072388 0.29736-0.11194 0.45627-0.13354-2.125 0.29248-4.2398 0.58154-6.3542 0.88086 0.088379-0.010376 0.18039-0.021729 0.26541-0.028687 6.5735-0.63586 12.136-2.2567 16.948-7.1708 6.0395-6.1708 8.4299-15.382 6.1596-23.809-1.6476-6.1132-5.6575-11.418-11.015-14.62-3.7338-2.2169-7.7686-3.3291-12.093-3.3438-4.3246 0.010986-8.363 1.1302-12.093 3.3403z"/>
  <path d="m923.79 705.69c3.0763 0 3.0763-4.8707 0-4.8707s-3.0765 4.8707 0 4.8707z"/>
  <path d="m914.61 742.97c20.558 0 20.558-32.562 0-32.562-20.569 0-20.569 32.562 0 32.562z"/>
 </g>
</svg>
